<?xml version="1.0" encoding="utf-8" ?>
<svg baseProfile="tiny" height="32px" version="1.2" width="32px" xmlns="http://www.w3.org/2000/svg" xmlns:ev="http://www.w3.org/2001/xml-events" xmlns:xlink="http://www.w3.org/1999/xlink"><defs /><rect fill="rgb(0,0,0)" height="1" width="1" x="4" y="4" /><rect fill="rgb(0,0,0)" height="1" width="1" x="5" y="4" /><rect fill="rgb(0,0,0)" height="1" width="1" x="6" y="4" /><rect fill="rgb(0,0,0)" height="1" width="1" x="26" y="4" /><rect fill="rgb(0,0,0)" height="1" width="1" x="27" y="4" /><rect fill="rgb(0,0,0)" height="1" width="1" x="28" y="4" /><rect fill="rgb(0,0,0)" height="1" width="1" x="3" y="5" /><rect fill="rgb(240,86,80)" height="1" width="1" x="4" y="5" /><rect fill="rgb(240,86,80)" height="1" width="1" x="5" y="5" /><rect fill="rgb(240,86,80)" height="1" width="1" x="6" y="5" /><rect fill="rgb(0,0,0)" height="1" width="1" x="7" y="5" /><rect fill="rgb(0,0,0)" height="1" width="1" x="25" y="5" /><rect fill="rgb(240,86,80)" height="1" width="1" x="26" y="5" /><rect fill="rgb(240,86,80)" height="1" width="1" x="27" y="5" /><rect fill="rgb(240,86,80)" height="1" width="1" x="28" y="5" /><rect fill="rgb(0,0,0)" height="1" width="1" x="29" y="5" /><rect fill="rgb(0,0,0)" height="1" width="1" x="3" y="6" /><rect fill="rgb(240,86,80)" height="1" width="1" x="4" y="6" /><rect fill="rgb(240,86,80)" height="1" width="1" x="5" y="6" /><rect fill="rgb(240,86,80)" height="1" width="1" x="6" y="6" /><rect fill="rgb(240,86,80)" height="1" width="1" x="7" y="6" /><rect fill="rgb(0,0,0)" height="1" width="1" x="8" y="6" /><rect fill="rgb(0,0,0)" height="1" width="1" x="24" y="6" /><rect fill="rgb(240,86,80)" height="1" width="1" x="25" y="6" /><rect fill="rgb(240,86,80)" height="1" width="1" x="26" y="6" /><rect fill="rgb(240,86,80)" height="1" width="1" x="27" y="6" /><rect fill="rgb(240,86,80)" height="1" width="1" x="28" y="6" /><rect fill="rgb(0,0,0)" height="1" width="1" x="29" y="6" /><rect fill="rgb(0,0,0)" height="1" width="1" x="3" y="7" /><rect fill="rgb(240,86,80)" height="1" width="1" x="4" y="7" /><rect fill="rgb(240,86,80)" height="1" width="1" x="5" y="7" /><rect fill="rgb(255,255,255)" height="1" width="1" x="6" y="7" /><rect fill="rgb(240,86,80)" height="1" width="1" x="7" y="7" /><rect fill="rgb(240,86,80)" height="1" width="1" x="8" y="7" /><rect fill="rgb(0,0,0)" height="1" width="1" x="9" y="7" /><rect fill="rgb(0,0,0)" height="1" width="1" x="23" y="7" /><rect fill="rgb(240,86,80)" height="1" width="1" x="24" y="7" /><rect fill="rgb(240,86,80)" height="1" width="1" x="25" y="7" /><rect fill="rgb(240,86,80)" height="1" width="1" x="26" y="7" /><rect fill="rgb(240,86,80)" height="1" width="1" x="27" y="7" /><rect fill="rgb(240,86,80)" height="1" width="1" x="28" y="7" /><rect fill="rgb(0,0,0)" height="1" width="1" x="29" y="7" /><rect fill="rgb(0,0,0)" height="1" width="1" x="3" y="8" /><rect fill="rgb(240,86,80)" height="1" width="1" x="4" y="8" /><rect fill="rgb(240,86,80)" height="1" width="1" x="5" y="8" /><rect fill="rgb(240,86,80)" height="1" width="1" x="6" y="8" /><rect fill="rgb(255,255,255)" height="1" width="1" x="7" y="8" /><rect fill="rgb(240,86,80)" height="1" width="1" x="8" y="8" /><rect fill="rgb(240,86,80)" height="1" width="1" x="9" y="8" /><rect fill="rgb(0,0,0)" height="1" width="1" x="10" y="8" /><rect fill="rgb(0,0,0)" height="1" width="1" x="22" y="8" /><rect fill="rgb(240,86,80)" height="1" width="1" x="23" y="8" /><rect fill="rgb(240,86,80)" height="1" width="1" x="24" y="8" /><rect fill="rgb(240,86,80)" height="1" width="1" x="25" y="8" /><rect fill="rgb(240,86,80)" height="1" width="1" x="26" y="8" /><rect fill="rgb(240,86,80)" height="1" width="1" x="27" y="8" /><rect fill="rgb(240,86,80)" height="1" width="1" x="28" y="8" /><rect fill="rgb(0,0,0)" height="1" width="1" x="29" y="8" /><rect fill="rgb(0,0,0)" height="1" width="1" x="4" y="9" /><rect fill="rgb(240,86,80)" height="1" width="1" x="5" y="9" /><rect fill="rgb(240,86,80)" height="1" width="1" x="6" y="9" /><rect fill="rgb(240,86,80)" height="1" width="1" x="7" y="9" /><rect fill="rgb(255,255,255)" height="1" width="1" x="8" y="9" /><rect fill="rgb(240,86,80)" height="1" width="1" x="9" y="9" /><rect fill="rgb(240,86,80)" height="1" width="1" x="10" y="9" /><rect fill="rgb(0,0,0)" height="1" width="1" x="11" y="9" /><rect fill="rgb(0,0,0)" height="1" width="1" x="21" y="9" /><rect fill="rgb(240,86,80)" height="1" width="1" x="22" y="9" /><rect fill="rgb(240,86,80)" height="1" width="1" x="23" y="9" /><rect fill="rgb(240,86,80)" height="1" width="1" x="24" y="9" /><rect fill="rgb(240,86,80)" height="1" width="1" x="25" y="9" /><rect fill="rgb(240,86,80)" height="1" width="1" x="26" y="9" /><rect fill="rgb(240,86,80)" height="1" width="1" x="27" y="9" /><rect fill="rgb(0,0,0)" height="1" width="1" x="28" y="9" /><rect fill="rgb(0,0,0)" height="1" width="1" x="5" y="10" /><rect fill="rgb(240,86,80)" height="1" width="1" x="6" y="10" /><rect fill="rgb(240,86,80)" height="1" width="1" x="7" y="10" /><rect fill="rgb(240,86,80)" height="1" width="1" x="8" y="10" /><rect fill="rgb(255,255,255)" height="1" width="1" x="9" y="10" /><rect fill="rgb(240,86,80)" height="1" width="1" x="10" y="10" /><rect fill="rgb(240,86,80)" height="1" width="1" x="11" y="10" /><rect fill="rgb(0,0,0)" height="1" width="1" x="12" y="10" /><rect fill="rgb(0,0,0)" height="1" width="1" x="20" y="10" /><rect fill="rgb(240,86,80)" height="1" width="1" x="21" y="10" /><rect fill="rgb(240,86,80)" height="1" width="1" x="22" y="10" /><rect fill="rgb(240,86,80)" height="1" width="1" x="23" y="10" /><rect fill="rgb(240,86,80)" height="1" width="1" x="24" y="10" /><rect fill="rgb(240,86,80)" height="1" width="1" x="25" y="10" /><rect fill="rgb(240,86,80)" height="1" width="1" x="26" y="10" /><rect fill="rgb(0,0,0)" height="1" width="1" x="27" y="10" /><rect fill="rgb(0,0,0)" height="1" width="1" x="6" y="11" /><rect fill="rgb(240,86,80)" height="1" width="1" x="7" y="11" /><rect fill="rgb(240,86,80)" height="1" width="1" x="8" y="11" /><rect fill="rgb(240,86,80)" height="1" width="1" x="9" y="11" /><rect fill="rgb(255,255,255)" height="1" width="1" x="10" y="11" /><rect fill="rgb(240,86,80)" height="1" width="1" x="11" y="11" /><rect fill="rgb(240,86,80)" height="1" width="1" x="12" y="11" /><rect fill="rgb(0,0,0)" height="1" width="1" x="13" y="11" /><rect fill="rgb(0,0,0)" height="1" width="1" x="19" y="11" /><rect fill="rgb(240,86,80)" height="1" width="1" x="20" y="11" /><rect fill="rgb(240,86,80)" height="1" width="1" x="21" y="11" /><rect fill="rgb(240,86,80)" height="1" width="1" x="22" y="11" /><rect fill="rgb(240,86,80)" height="1" width="1" x="23" y="11" /><rect fill="rgb(240,86,80)" height="1" width="1" x="24" y="11" /><rect fill="rgb(240,86,80)" height="1" width="1" x="25" y="11" /><rect fill="rgb(0,0,0)" height="1" width="1" x="26" y="11" /><rect fill="rgb(0,0,0)" height="1" width="1" x="7" y="12" /><rect fill="rgb(240,86,80)" height="1" width="1" x="8" y="12" /><rect fill="rgb(240,86,80)" height="1" width="1" x="9" y="12" /><rect fill="rgb(240,86,80)" height="1" width="1" x="10" y="12" /><rect fill="rgb(240,86,80)" height="1" width="1" x="11" y="12" /><rect fill="rgb(240,86,80)" height="1" width="1" x="12" y="12" /><rect fill="rgb(240,86,80)" height="1" width="1" x="13" y="12" /><rect fill="rgb(0,0,0)" height="1" width="1" x="14" y="12" /><rect fill="rgb(0,0,0)" height="1" width="1" x="18" y="12" /><rect fill="rgb(240,86,80)" height="1" width="1" x="19" y="12" /><rect fill="rgb(240,86,80)" height="1" width="1" x="20" y="12" /><rect fill="rgb(240,86,80)" height="1" width="1" x="21" y="12" /><rect fill="rgb(240,86,80)" height="1" width="1" x="22" y="12" /><rect fill="rgb(240,86,80)" height="1" width="1" x="23" y="12" /><rect fill="rgb(240,86,80)" height="1" width="1" x="24" y="12" /><rect fill="rgb(0,0,0)" height="1" width="1" x="25" y="12" /><rect fill="rgb(0,0,0)" height="1" width="1" x="8" y="13" /><rect fill="rgb(240,86,80)" height="1" width="1" x="9" y="13" /><rect fill="rgb(240,86,80)" height="1" width="1" x="10" y="13" /><rect fill="rgb(240,86,80)" height="1" width="1" x="11" y="13" /><rect fill="rgb(240,86,80)" height="1" width="1" x="12" y="13" /><rect fill="rgb(240,86,80)" height="1" width="1" x="13" y="13" /><rect fill="rgb(240,86,80)" height="1" width="1" x="14" y="13" /><rect fill="rgb(0,0,0)" height="1" width="1" x="15" y="13" /><rect fill="rgb(0,0,0)" height="1" width="1" x="17" y="13" /><rect fill="rgb(240,86,80)" height="1" width="1" x="18" y="13" /><rect fill="rgb(240,86,80)" height="1" width="1" x="19" y="13" /><rect fill="rgb(240,86,80)" height="1" width="1" x="20" y="13" /><rect fill="rgb(240,86,80)" height="1" width="1" x="21" y="13" /><rect fill="rgb(240,86,80)" height="1" width="1" x="22" y="13" /><rect fill="rgb(240,86,80)" height="1" width="1" x="23" y="13" /><rect fill="rgb(0,0,0)" height="1" width="1" x="24" y="13" /><rect fill="rgb(0,0,0)" height="1" width="1" x="9" y="14" /><rect fill="rgb(240,86,80)" height="1" width="1" x="10" y="14" /><rect fill="rgb(240,86,80)" height="1" width="1" x="11" y="14" /><rect fill="rgb(240,86,80)" height="1" width="1" x="12" y="14" /><rect fill="rgb(240,86,80)" height="1" width="1" x="13" y="14" /><rect fill="rgb(240,86,80)" height="1" width="1" x="14" y="14" /><rect fill="rgb(240,86,80)" height="1" width="1" x="15" y="14" /><rect fill="rgb(0,0,0)" height="1" width="1" x="16" y="14" /><rect fill="rgb(240,86,80)" height="1" width="1" x="17" y="14" /><rect fill="rgb(240,86,80)" height="1" width="1" x="18" y="14" /><rect fill="rgb(240,86,80)" height="1" width="1" x="19" y="14" /><rect fill="rgb(240,86,80)" height="1" width="1" x="20" y="14" /><rect fill="rgb(240,86,80)" height="1" width="1" x="21" y="14" /><rect fill="rgb(240,86,80)" height="1" width="1" x="22" y="14" /><rect fill="rgb(0,0,0)" height="1" width="1" x="23" y="14" /><rect fill="rgb(0,0,0)" height="1" width="1" x="10" y="15" /><rect fill="rgb(240,86,80)" height="1" width="1" x="11" y="15" /><rect fill="rgb(240,86,80)" height="1" width="1" x="12" y="15" /><rect fill="rgb(240,86,80)" height="1" width="1" x="13" y="15" /><rect fill="rgb(240,86,80)" height="1" width="1" x="14" y="15" /><rect fill="rgb(240,86,80)" height="1" width="1" x="15" y="15" /><rect fill="rgb(240,86,80)" height="1" width="1" x="16" y="15" /><rect fill="rgb(240,86,80)" height="1" width="1" x="17" y="15" /><rect fill="rgb(240,86,80)" height="1" width="1" x="18" y="15" /><rect fill="rgb(240,86,80)" height="1" width="1" x="19" y="15" /><rect fill="rgb(240,86,80)" height="1" width="1" x="20" y="15" /><rect fill="rgb(240,86,80)" height="1" width="1" x="21" y="15" /><rect fill="rgb(0,0,0)" height="1" width="1" x="22" y="15" /><rect fill="rgb(0,0,0)" height="1" width="1" x="11" y="16" /><rect fill="rgb(240,86,80)" height="1" width="1" x="12" y="16" /><rect fill="rgb(240,86,80)" height="1" width="1" x="13" y="16" /><rect fill="rgb(240,86,80)" height="1" width="1" x="14" y="16" /><rect fill="rgb(240,86,80)" height="1" width="1" x="15" y="16" /><rect fill="rgb(240,86,80)" height="1" width="1" x="16" y="16" /><rect fill="rgb(240,86,80)" height="1" width="1" x="17" y="16" /><rect fill="rgb(240,86,80)" height="1" width="1" x="18" y="16" /><rect fill="rgb(240,86,80)" height="1" width="1" x="19" y="16" /><rect fill="rgb(240,86,80)" height="1" width="1" x="20" y="16" /><rect fill="rgb(0,0,0)" height="1" width="1" x="21" y="16" /><rect fill="rgb(0,0,0)" height="1" width="1" x="12" y="17" /><rect fill="rgb(240,86,80)" height="1" width="1" x="13" y="17" /><rect fill="rgb(240,86,80)" height="1" width="1" x="14" y="17" /><rect fill="rgb(240,86,80)" height="1" width="1" x="15" y="17" /><rect fill="rgb(240,86,80)" height="1" width="1" x="16" y="17" /><rect fill="rgb(240,86,80)" height="1" width="1" x="17" y="17" /><rect fill="rgb(240,86,80)" height="1" width="1" x="18" y="17" /><rect fill="rgb(240,86,80)" height="1" width="1" x="19" y="17" /><rect fill="rgb(0,0,0)" height="1" width="1" x="20" y="17" /><rect fill="rgb(0,0,0)" height="1" width="1" x="12" y="18" /><rect fill="rgb(240,86,80)" height="1" width="1" x="13" y="18" /><rect fill="rgb(240,86,80)" height="1" width="1" x="14" y="18" /><rect fill="rgb(240,86,80)" height="1" width="1" x="15" y="18" /><rect fill="rgb(240,86,80)" height="1" width="1" x="16" y="18" /><rect fill="rgb(240,86,80)" height="1" width="1" x="17" y="18" /><rect fill="rgb(240,86,80)" height="1" width="1" x="18" y="18" /><rect fill="rgb(240,86,80)" height="1" width="1" x="19" y="18" /><rect fill="rgb(0,0,0)" height="1" width="1" x="20" y="18" /><rect fill="rgb(0,0,0)" height="1" width="1" x="11" y="19" /><rect fill="rgb(240,86,80)" height="1" width="1" x="12" y="19" /><rect fill="rgb(240,86,80)" height="1" width="1" x="13" y="19" /><rect fill="rgb(240,86,80)" height="1" width="1" x="14" y="19" /><rect fill="rgb(240,86,80)" height="1" width="1" x="15" y="19" /><rect fill="rgb(240,86,80)" height="1" width="1" x="16" y="19" /><rect fill="rgb(240,86,80)" height="1" width="1" x="17" y="19" /><rect fill="rgb(240,86,80)" height="1" width="1" x="18" y="19" /><rect fill="rgb(240,86,80)" height="1" width="1" x="19" y="19" /><rect fill="rgb(240,86,80)" height="1" width="1" x="20" y="19" /><rect fill="rgb(0,0,0)" height="1" width="1" x="21" y="19" /><rect fill="rgb(0,0,0)" height="1" width="1" x="10" y="20" /><rect fill="rgb(240,86,80)" height="1" width="1" x="11" y="20" /><rect fill="rgb(240,86,80)" height="1" width="1" x="12" y="20" /><rect fill="rgb(240,86,80)" height="1" width="1" x="13" y="20" /><rect fill="rgb(240,86,80)" height="1" width="1" x="14" y="20" /><rect fill="rgb(240,86,80)" height="1" width="1" x="15" y="20" /><rect fill="rgb(240,86,80)" height="1" width="1" x="16" y="20" /><rect fill="rgb(240,86,80)" height="1" width="1" x="17" y="20" /><rect fill="rgb(240,86,80)" height="1" width="1" x="18" y="20" /><rect fill="rgb(240,86,80)" height="1" width="1" x="19" y="20" /><rect fill="rgb(240,86,80)" height="1" width="1" x="20" y="20" /><rect fill="rgb(240,86,80)" height="1" width="1" x="21" y="20" /><rect fill="rgb(0,0,0)" height="1" width="1" x="22" y="20" /><rect fill="rgb(0,0,0)" height="1" width="1" x="9" y="21" /><rect fill="rgb(240,86,80)" height="1" width="1" x="10" y="21" /><rect fill="rgb(240,86,80)" height="1" width="1" x="11" y="21" /><rect fill="rgb(240,86,80)" height="1" width="1" x="12" y="21" /><rect fill="rgb(240,86,80)" height="1" width="1" x="13" y="21" /><rect fill="rgb(240,86,80)" height="1" width="1" x="14" y="21" /><rect fill="rgb(240,86,80)" height="1" width="1" x="15" y="21" /><rect fill="rgb(0,0,0)" height="1" width="1" x="16" y="21" /><rect fill="rgb(240,86,80)" height="1" width="1" x="17" y="21" /><rect fill="rgb(240,86,80)" height="1" width="1" x="18" y="21" /><rect fill="rgb(240,86,80)" height="1" width="1" x="19" y="21" /><rect fill="rgb(240,86,80)" height="1" width="1" x="20" y="21" /><rect fill="rgb(240,86,80)" height="1" width="1" x="21" y="21" /><rect fill="rgb(240,86,80)" height="1" width="1" x="22" y="21" /><rect fill="rgb(0,0,0)" height="1" width="1" x="23" y="21" /><rect fill="rgb(0,0,0)" height="1" width="1" x="8" y="22" /><rect fill="rgb(240,86,80)" height="1" width="1" x="9" y="22" /><rect fill="rgb(240,86,80)" height="1" width="1" x="10" y="22" /><rect fill="rgb(240,86,80)" height="1" width="1" x="11" y="22" /><rect fill="rgb(240,86,80)" height="1" width="1" x="12" y="22" /><rect fill="rgb(240,86,80)" height="1" width="1" x="13" y="22" /><rect fill="rgb(240,86,80)" height="1" width="1" x="14" y="22" /><rect fill="rgb(0,0,0)" height="1" width="1" x="15" y="22" /><rect fill="rgb(0,0,0)" height="1" width="1" x="17" y="22" /><rect fill="rgb(240,86,80)" height="1" width="1" x="18" y="22" /><rect fill="rgb(240,86,80)" height="1" width="1" x="19" y="22" /><rect fill="rgb(240,86,80)" height="1" width="1" x="20" y="22" /><rect fill="rgb(240,86,80)" height="1" width="1" x="21" y="22" /><rect fill="rgb(240,86,80)" height="1" width="1" x="22" y="22" /><rect fill="rgb(240,86,80)" height="1" width="1" x="23" y="22" /><rect fill="rgb(0,0,0)" height="1" width="1" x="24" y="22" /><rect fill="rgb(0,0,0)" height="1" width="1" x="7" y="23" /><rect fill="rgb(240,86,80)" height="1" width="1" x="8" y="23" /><rect fill="rgb(240,86,80)" height="1" width="1" x="9" y="23" /><rect fill="rgb(240,86,80)" height="1" width="1" x="10" y="23" /><rect fill="rgb(240,86,80)" height="1" width="1" x="11" y="23" /><rect fill="rgb(240,86,80)" height="1" width="1" x="12" y="23" /><rect fill="rgb(240,86,80)" height="1" width="1" x="13" y="23" /><rect fill="rgb(0,0,0)" height="1" width="1" x="14" y="23" /><rect fill="rgb(0,0,0)" height="1" width="1" x="18" y="23" /><rect fill="rgb(240,86,80)" height="1" width="1" x="19" y="23" /><rect fill="rgb(240,86,80)" height="1" width="1" x="20" y="23" /><rect fill="rgb(240,86,80)" height="1" width="1" x="21" y="23" /><rect fill="rgb(240,86,80)" height="1" width="1" x="22" y="23" /><rect fill="rgb(240,86,80)" height="1" width="1" x="23" y="23" /><rect fill="rgb(240,86,80)" height="1" width="1" x="24" y="23" /><rect fill="rgb(0,0,0)" height="1" width="1" x="25" y="23" /><rect fill="rgb(0,0,0)" height="1" width="1" x="6" y="24" /><rect fill="rgb(240,86,80)" height="1" width="1" x="7" y="24" /><rect fill="rgb(240,86,80)" height="1" width="1" x="8" y="24" /><rect fill="rgb(240,86,80)" height="1" width="1" x="9" y="24" /><rect fill="rgb(240,86,80)" height="1" width="1" x="10" y="24" /><rect fill="rgb(240,86,80)" height="1" width="1" x="11" y="24" /><rect fill="rgb(240,86,80)" height="1" width="1" x="12" y="24" /><rect fill="rgb(0,0,0)" height="1" width="1" x="13" y="24" /><rect fill="rgb(0,0,0)" height="1" width="1" x="19" y="24" /><rect fill="rgb(240,86,80)" height="1" width="1" x="20" y="24" /><rect fill="rgb(240,86,80)" height="1" width="1" x="21" y="24" /><rect fill="rgb(240,86,80)" height="1" width="1" x="22" y="24" /><rect fill="rgb(240,86,80)" height="1" width="1" x="23" y="24" /><rect fill="rgb(240,86,80)" height="1" width="1" x="24" y="24" /><rect fill="rgb(240,86,80)" height="1" width="1" x="25" y="24" /><rect fill="rgb(0,0,0)" height="1" width="1" x="26" y="24" /><rect fill="rgb(0,0,0)" height="1" width="1" x="5" y="25" /><rect fill="rgb(240,86,80)" height="1" width="1" x="6" y="25" /><rect fill="rgb(240,86,80)" height="1" width="1" x="7" y="25" /><rect fill="rgb(240,86,80)" height="1" width="1" x="8" y="25" /><rect fill="rgb(240,86,80)" height="1" width="1" x="9" y="25" /><rect fill="rgb(240,86,80)" height="1" width="1" x="10" y="25" /><rect fill="rgb(240,86,80)" height="1" width="1" x="11" y="25" /><rect fill="rgb(0,0,0)" height="1" width="1" x="12" y="25" /><rect fill="rgb(0,0,0)" height="1" width="1" x="20" y="25" /><rect fill="rgb(240,86,80)" height="1" width="1" x="21" y="25" /><rect fill="rgb(240,86,80)" height="1" width="1" x="22" y="25" /><rect fill="rgb(240,86,80)" height="1" width="1" x="23" y="25" /><rect fill="rgb(240,86,80)" height="1" width="1" x="24" y="25" /><rect fill="rgb(240,86,80)" height="1" width="1" x="25" y="25" /><rect fill="rgb(240,86,80)" height="1" width="1" x="26" y="25" /><rect fill="rgb(0,0,0)" height="1" width="1" x="27" y="25" /><rect fill="rgb(0,0,0)" height="1" width="1" x="4" y="26" /><rect fill="rgb(240,86,80)" height="1" width="1" x="5" y="26" /><rect fill="rgb(240,86,80)" height="1" width="1" x="6" y="26" /><rect fill="rgb(240,86,80)" height="1" width="1" x="7" y="26" /><rect fill="rgb(240,86,80)" height="1" width="1" x="8" y="26" /><rect fill="rgb(240,86,80)" height="1" width="1" x="9" y="26" /><rect fill="rgb(240,86,80)" height="1" width="1" x="10" y="26" /><rect fill="rgb(0,0,0)" height="1" width="1" x="11" y="26" /><rect fill="rgb(0,0,0)" height="1" width="1" x="21" y="26" /><rect fill="rgb(240,86,80)" height="1" width="1" x="22" y="26" /><rect fill="rgb(240,86,80)" height="1" width="1" x="23" y="26" /><rect fill="rgb(240,86,80)" height="1" width="1" x="24" y="26" /><rect fill="rgb(240,86,80)" height="1" width="1" x="25" y="26" /><rect fill="rgb(240,86,80)" height="1" width="1" x="26" y="26" /><rect fill="rgb(240,86,80)" height="1" width="1" x="27" y="26" /><rect fill="rgb(0,0,0)" height="1" width="1" x="28" y="26" /><rect fill="rgb(0,0,0)" height="1" width="1" x="3" y="27" /><rect fill="rgb(240,86,80)" height="1" width="1" x="4" y="27" /><rect fill="rgb(240,86,80)" height="1" width="1" x="5" y="27" /><rect fill="rgb(240,86,80)" height="1" width="1" x="6" y="27" /><rect fill="rgb(240,86,80)" height="1" width="1" x="7" y="27" /><rect fill="rgb(240,86,80)" height="1" width="1" x="8" y="27" /><rect fill="rgb(240,86,80)" height="1" width="1" x="9" y="27" /><rect fill="rgb(0,0,0)" height="1" width="1" x="10" y="27" /><rect fill="rgb(0,0,0)" height="1" width="1" x="22" y="27" /><rect fill="rgb(240,86,80)" height="1" width="1" x="23" y="27" /><rect fill="rgb(240,86,80)" height="1" width="1" x="24" y="27" /><rect fill="rgb(240,86,80)" height="1" width="1" x="25" y="27" /><rect fill="rgb(240,86,80)" height="1" width="1" x="26" y="27" /><rect fill="rgb(240,86,80)" height="1" width="1" x="27" y="27" /><rect fill="rgb(240,86,80)" height="1" width="1" x="28" y="27" /><rect fill="rgb(0,0,0)" height="1" width="1" x="29" y="27" /><rect fill="rgb(0,0,0)" height="1" width="1" x="3" y="28" /><rect fill="rgb(240,86,80)" height="1" width="1" x="4" y="28" /><rect fill="rgb(240,86,80)" height="1" width="1" x="5" y="28" /><rect fill="rgb(240,86,80)" height="1" width="1" x="6" y="28" /><rect fill="rgb(240,86,80)" height="1" width="1" x="7" y="28" /><rect fill="rgb(240,86,80)" height="1" width="1" x="8" y="28" /><rect fill="rgb(0,0,0)" height="1" width="1" x="9" y="28" /><rect fill="rgb(0,0,0)" height="1" width="1" x="23" y="28" /><rect fill="rgb(240,86,80)" height="1" width="1" x="24" y="28" /><rect fill="rgb(240,86,80)" height="1" width="1" x="25" y="28" /><rect fill="rgb(240,86,80)" height="1" width="1" x="26" y="28" /><rect fill="rgb(240,86,80)" height="1" width="1" x="27" y="28" /><rect fill="rgb(240,86,80)" height="1" width="1" x="28" y="28" /><rect fill="rgb(0,0,0)" height="1" width="1" x="29" y="28" /><rect fill="rgb(0,0,0)" height="1" width="1" x="3" y="29" /><rect fill="rgb(240,86,80)" height="1" width="1" x="4" y="29" /><rect fill="rgb(240,86,80)" height="1" width="1" x="5" y="29" /><rect fill="rgb(240,86,80)" height="1" width="1" x="6" y="29" /><rect fill="rgb(240,86,80)" height="1" width="1" x="7" y="29" /><rect fill="rgb(0,0,0)" height="1" width="1" x="8" y="29" /><rect fill="rgb(0,0,0)" height="1" width="1" x="24" y="29" /><rect fill="rgb(240,86,80)" height="1" width="1" x="25" y="29" /><rect fill="rgb(240,86,80)" height="1" width="1" x="26" y="29" /><rect fill="rgb(240,86,80)" height="1" width="1" x="27" y="29" /><rect fill="rgb(240,86,80)" height="1" width="1" x="28" y="29" /><rect fill="rgb(0,0,0)" height="1" width="1" x="29" y="29" /><rect fill="rgb(0,0,0)" height="1" width="1" x="4" y="30" /><rect fill="rgb(0,0,0)" height="1" width="1" x="5" y="30" /><rect fill="rgb(0,0,0)" height="1" width="1" x="6" y="30" /><rect fill="rgb(0,0,0)" height="1" width="1" x="7" y="30" /><rect fill="rgb(0,0,0)" height="1" width="1" x="25" y="30" /><rect fill="rgb(0,0,0)" height="1" width="1" x="26" y="30" /><rect fill="rgb(0,0,0)" height="1" width="1" x="27" y="30" /><rect fill="rgb(0,0,0)" height="1" width="1" x="28" y="30" /></svg>