<svg width="38" height="38" viewBox="0 0 38 38" fill="none" xmlns="http://www.w3.org/2000/svg">
<path d="M0.666992 23.9997V20.6663H19.0003V12.333H20.667V13.9997H22.3337V15.6663H24.0003V17.333H25.667V18.9997H27.3337V20.6663H29.0003V23.9997H27.3337V25.6663H25.667V27.333H24.0003V28.9997H22.3337V30.6663H20.667V32.333H19.0003V23.9997H0.666992Z" fill="#FEE9E7"/>
<path d="M37.3333 9.00032V35.667H35.6667V37.3337H10.6667V35.667H9V25.667H12.3333V34.0003H34V12.3337H25.6667V4.00033H12.3333V19.0003H9V2.33366H10.6667V0.666992H29V2.33366H30.6667V4.00033H32.3333V5.66699H34V7.33366H35.6667V9.00032H37.3333Z" fill="#FEE9E7"/>
</svg>
