<svg width="85" height="85" viewBox="0 0 85 85" fill="none" xmlns="http://www.w3.org/2000/svg">
<path d="M31.875 63.7499V67.2916H53.125V63.7499H31.875Z" fill="white"/>
<path d="M24.7917 60.2083V63.7499H31.875V60.2083H24.7917Z" fill="white"/>
<path d="M24.7917 53.1249H21.25V60.2083H24.7917V53.1249Z" fill="white"/>
<path d="M17.7084 53.1249H21.25V31.8749H17.7084V53.1249Z" fill="white"/>
<path d="M21.25 31.8749H24.7917V24.7916H21.25L21.25 31.8749Z" fill="white"/>
<path d="M24.7917 21.2499V24.7916H31.875V21.2499H24.7917Z" fill="white"/>
<path d="M31.875 17.7083V21.2499H53.125V17.7083H31.875Z" fill="white"/>
<path d="M60.2084 24.7916V21.2499H53.125V24.7916H60.2084Z" fill="white"/>
<path d="M60.2084 31.8749H63.75V24.7916H60.2084V31.8749Z" fill="white"/>
<path d="M63.75 53.1249H67.2917V31.8749H63.75V53.1249Z" fill="white"/>
<path d="M63.75 53.1249H60.2084V60.2083H63.75V53.1249Z" fill="white"/>
<path d="M60.2084 63.7499V60.2083H53.125V63.7499H60.2084Z" fill="white"/>
<path d="M40.7291 31.875H44.2708V46.0417H40.7291V31.875Z" fill="white"/>
<path d="M40.7291 49.5833H44.2708V53.125H40.7291V49.5833Z" fill="white"/>
</svg>
