<svg width="40" height="40" viewBox="0 0 40 40" fill="none" xmlns="http://www.w3.org/2000/svg">
<path d="M19.3423 5.13532e-06C18.0131 -0.0001534 17.3248 0.684859 17.3248 2.014V2.014V3.34241C17.3248 3.70769 17.0287 4.00381 16.6634 4.00381V4.00381V4.00381C16.2982 4.00381 16.002 4.29988 16.002 4.6651V4.6651V4.6651C16.002 5.03033 15.7058 5.3264 15.3406 5.3264V5.3264V5.3264C14.9753 5.3264 14.6792 5.03033 14.6792 4.6651V4.6651V4.6651C14.6792 4.29988 14.3831 4.00381 14.0179 4.00381H14.0079V4.00381C13.6372 4.00381 13.3366 3.70332 13.3366 3.33265V3.33265V3.32288C13.3366 2.9576 13.0405 2.66148 12.6752 2.66148V2.66148V2.66148C12.31 2.66148 12.0138 2.36541 12.0138 2.00018V2.00018V2.00018C12.0138 1.63496 11.7177 1.33889 11.3525 1.33889H11.3425H11.3326C10.9673 1.33889 10.6713 1.63496 10.6713 2.00018V2.00018V2.00018C10.6713 2.36541 10.3752 2.66148 10.01 2.66148H10V2.66148C9.62933 2.66148 9.32873 2.96197 9.32873 3.33265V3.33265V3.33265C9.32873 3.70332 9.02813 4.00381 8.65745 4.00381V4.00381V4.00381C8.29068 4.00381 7.98795 4.30229 7.99013 4.66905V4.66905V4.66905C7.99342 5.03945 8.29298 5.33891 8.66338 5.34219V5.34219V5.34219C9.03148 5.34438 9.32873 5.6434 9.32873 6.0115V7.3399V8.66829C9.32873 9.0364 9.03148 9.33542 8.66338 9.3376V9.3376V9.3376C8.29407 9.34088 7.99342 9.63947 7.99013 10.0088V10.0088V10.0088C7.98796 10.3747 7.69069 10.676 7.32478 10.676V10.676V10.676C6.9595 10.676 6.66338 10.3799 6.66338 10.0146V10.0048V9.99506C6.66338 9.62977 6.36726 9.33365 6.00197 9.33365V9.33365V9.33365C5.63606 9.33365 5.33879 9.03234 5.33662 8.66644V8.66644V8.66644C5.33334 8.29808 5.0338 8.00119 4.66543 8.00119H3.99803V8.00119C3.26106 8.00119 2.66269 8.60064 2.65943 9.3376V9.3376L2.65743 10.0146C2.65635 10.3802 2.35967 10.676 1.99408 10.676V10.676V10.676C1.62879 10.676 1.33268 10.9721 1.33268 11.3374V11.3472V11.3569C1.33268 11.7222 1.62879 12.0183 1.99408 12.0183V12.0183V12.0183C2.3593 12.0183 2.65548 12.3144 2.65548 12.6796V12.6796V12.6796C2.65548 13.0448 2.95155 13.3409 3.31677 13.3409H3.32675V13.3409C3.69743 13.3409 3.99803 13.6414 3.99803 14.0121V14.0121V14.0218C3.99803 14.3871 4.29415 14.6832 4.65943 14.6832V14.6832V14.6832C5.02465 14.6832 5.32083 14.9793 5.32083 15.3445V15.3445V15.3445C5.32083 15.7098 5.02465 16.0058 4.65943 16.0058V16.0058V16.0058C4.2942 16.0058 3.99803 16.3019 3.99803 16.6671V16.6671V16.6671C3.99803 17.0326 3.70217 17.329 3.33673 17.3297L1.99803 17.3324V17.3324C0.89359 17.3356 0 18.2319 0 19.3363V20.0032V20.6701C0 21.7745 0.89359 22.6708 1.99803 22.6741V22.6741L3.33673 22.6767C3.70216 22.6774 3.99803 22.9739 3.99803 23.3393V23.3393V23.3393C3.99803 23.7045 4.2942 24.0006 4.65943 24.0006V24.0006V24.0006C5.02465 24.0006 5.32083 24.2967 5.32083 24.6619V24.6619V24.6619C5.32083 25.0271 5.02465 25.3232 4.65943 25.3232V25.3232V25.3232C4.29415 25.3232 3.99803 25.6193 3.99803 25.9846V25.9944V25.9944C3.99803 26.365 3.69743 26.6655 3.32675 26.6655V26.6655H3.31677C2.95155 26.6655 2.65548 26.9616 2.65548 27.3268V27.3268V27.3268C2.65548 27.692 2.3593 27.9881 1.99408 27.9881V27.9881V27.9881C1.62879 27.9881 1.33268 28.2842 1.33268 28.6495V28.6593V28.669C1.33268 29.0343 1.62879 29.3304 1.99408 29.3304V29.3304V29.3304C2.35936 29.3304 2.65548 29.6266 2.65548 29.9918V30.6629V30.6629C2.65548 31.3988 3.26213 31.9954 3.99803 31.9954V31.9954H4.67928C5.0445 31.9954 5.34057 31.6993 5.34057 31.3341V31.3341V31.3341C5.34057 30.9688 5.63675 30.6728 6.00197 30.6728V30.6728V30.6728C6.36726 30.6728 6.66338 30.3767 6.66338 30.0114V30.0016V29.9918C6.66338 29.6266 6.9595 29.3304 7.32478 29.3304V29.3304V29.3304C7.69069 29.3304 7.98796 29.6298 7.99013 29.9957V29.9957V29.9957C7.99342 30.3661 8.29298 30.6655 8.66338 30.6688V30.6688V30.6688C9.03148 30.671 9.32873 30.97 9.32873 31.3381V32.6665V33.989C9.32873 34.3597 9.02819 34.6603 8.65745 34.6603V34.6603V34.6603C8.29068 34.6603 7.98795 34.9588 7.99013 35.3255V35.3255V35.3255C7.99342 35.6959 8.29298 35.9954 8.66338 35.9987V35.9987V35.9987C9.03148 36.0009 9.32873 36.3057 9.32873 36.6738V36.6738V36.6738C9.32873 37.0445 9.62933 37.3449 10 37.3449V37.3449H10.01C10.3752 37.3449 10.6713 37.641 10.6713 38.0062V38.0062V38.0062C10.6713 38.3715 10.9673 38.6675 11.3326 38.6675H11.3425H11.3525C11.7177 38.6675 12.0138 38.3715 12.0138 38.0062V38.0062V38.0062C12.0138 37.641 12.31 37.3449 12.6752 37.3449V37.3449V37.3449C13.0405 37.3449 13.3366 37.0488 13.3366 36.6835V36.6738V36.6738C13.3366 36.3046 13.6348 36.0009 14.0039 35.9987V35.9987V35.9987C14.3733 35.9954 14.6719 35.6968 14.6752 35.3275V35.3275V35.3275C14.6774 34.9616 14.9747 34.6603 15.3406 34.6603V34.6603V34.6603C15.7059 34.6603 16.002 34.9564 16.002 35.3217V35.3315V35.3412C16.002 35.7065 16.2981 36.0026 16.6634 36.0026V36.0026V36.0026C17.0289 36.0026 17.3254 36.2985 17.3261 36.664L17.3287 38.0023V38.0023C17.332 39.1066 18.2281 40 19.3324 40H20H20.6676C21.7719 40 22.668 39.1066 22.6713 38.0023V38.0023L22.6739 36.664C22.6746 36.2985 22.9711 36.0026 23.3366 36.0026V36.0026V36.0026C23.7019 36.0026 23.998 35.7065 23.998 35.3412V35.3315V35.3217C23.998 34.9564 24.2941 34.6603 24.6594 34.6603V34.6603V34.6603C25.0253 34.6603 25.3226 34.9596 25.3248 35.3255V35.3255V35.3255C25.3281 35.6959 25.6276 35.9954 25.998 35.9987V35.9987V35.9987C26.3661 36.0009 26.6634 36.3057 26.6634 36.6738V36.6738V36.6835C26.6634 37.0488 26.9595 37.3449 27.3248 37.3449V37.3449V37.3449C27.69 37.3449 27.9862 37.641 27.9862 38.0062V38.0062V38.0062C27.9862 38.3715 28.2823 38.6675 28.6475 38.6675H28.6575H28.6674C29.0327 38.6675 29.3287 38.3715 29.3287 38.0062V38.0062V38.0062C29.3287 37.6404 29.6302 37.3432 29.9961 37.341V37.341V37.341C30.3654 37.3377 30.664 37.0372 30.6673 36.6679V36.6679V36.6679C30.6695 36.302 30.9668 36.0026 31.3327 36.0026V36.0026V36.0026C31.698 36.0026 31.9941 35.7065 31.9941 35.3412V35.3315V35.3217C31.9941 34.9564 31.698 34.6603 31.3327 34.6603V34.6603V34.6603C30.9674 34.6603 30.6713 34.3642 30.6713 33.9989V32.6665V31.3342C30.6713 30.9689 30.9674 30.6728 31.3327 30.6728V30.6728V30.6728C31.698 30.6728 31.9941 30.3767 31.9941 30.0114V30.0016V29.9918C31.9941 29.6266 32.2902 29.3304 32.6555 29.3304V29.3304V29.3304C33.0214 29.3304 33.3187 29.6298 33.3208 29.9957V29.9957V29.9957C33.3241 30.3661 33.6237 30.6655 33.9941 30.6688V30.6688V30.6688C34.3599 30.671 34.6594 30.9682 34.6594 31.3341V31.3341V31.3341C34.6594 31.6993 34.9555 31.9954 35.3207 31.9954H35.9921V31.9954C36.728 31.9954 37.3248 31.3988 37.3248 30.6629V30.6629V30.0017C37.3248 29.631 37.6253 29.3304 37.996 29.3304V29.3304V29.3304C38.3667 29.3304 38.6673 29.0299 38.6673 28.6593V28.6593V28.6593C38.6673 28.2886 38.3667 27.9881 37.996 27.9881V27.9881H37.9861C37.6208 27.9881 37.3248 27.692 37.3248 27.3268V27.3268V27.3268C37.3248 26.9616 37.0286 26.6655 36.6634 26.6655V26.6655V26.6655C36.2975 26.6655 36.0002 26.3642 35.998 25.9983V25.9983V25.9983C35.9947 25.629 35.6961 25.3304 35.3268 25.3271V25.3271V25.3271C34.9609 25.325 34.6594 25.0277 34.6594 24.6619V24.6619V24.6619C34.6594 24.2967 34.9555 24.0006 35.3207 24.0006H35.3307H35.3407C35.7059 24.0006 36.002 23.7045 36.002 23.3393V23.3393V23.3393C36.002 22.9739 36.2978 22.6774 36.6633 22.6767L38.002 22.6741V22.6741C39.1064 22.6708 40 21.7745 40 20.6701V20.0032V19.3363C40 18.2319 39.1064 17.3356 38.002 17.3324V17.3324L36.6633 17.3297C36.2978 17.329 36.002 17.0326 36.002 16.6671V16.6671V16.6671C36.002 16.3019 35.7059 16.0058 35.3407 16.0058H35.3307H35.3207C34.9555 16.0058 34.6594 15.7098 34.6594 15.3445V15.3445V15.3445C34.6594 14.9787 34.9609 14.6815 35.3268 14.6793V14.6793V14.6793C35.6961 14.676 35.9947 14.3755 35.998 14.0062V14.0062V14.0062C36.0002 13.6402 36.2975 13.3409 36.6634 13.3409V13.3409V13.3409C37.0286 13.3409 37.3248 13.0448 37.3248 12.6796V12.6796V12.6796C37.3248 12.3144 37.6208 12.0183 37.9861 12.0183H37.996V12.0183C38.3667 12.0183 38.6673 11.7178 38.6673 11.3472V11.3472V11.3472C38.6673 10.9765 38.3667 10.676 37.996 10.676V10.676V10.676C37.6253 10.676 37.3248 10.3754 37.3248 10.0047V9.33365V9.33365C37.3248 8.59764 36.7281 7.99133 35.9921 7.99133V7.99133H35.3306C34.9599 7.99133 34.6594 8.29182 34.6594 8.66249V8.66249V8.66249C34.6594 9.03059 34.3622 9.33542 33.9941 9.3376V9.3376V9.3376C33.6248 9.34088 33.3241 9.63947 33.3208 10.0088V10.0088V10.0088C33.3187 10.3747 33.0214 10.676 32.6555 10.676V10.676V10.676C32.2902 10.676 31.9941 10.3799 31.9941 10.0146V10.0048V9.99506C31.9941 9.62977 31.698 9.33365 31.3327 9.33365V9.33365V9.33365C30.9674 9.33365 30.6713 9.03753 30.6713 8.67225V7.3399V6.00754C30.6713 5.64226 30.9674 5.34614 31.3327 5.34614V5.34614V5.34614C31.698 5.34614 31.9941 5.05002 31.9941 4.68474V4.67498V4.66521C31.9941 4.29993 31.698 4.00381 31.3327 4.00381V4.00381V4.00381C30.9668 4.00381 30.6695 3.7025 30.6673 3.33659V3.33659V3.33659C30.664 2.96729 30.3654 2.66871 29.9961 2.66543V2.66543V2.66543C29.6302 2.66326 29.3287 2.36604 29.3287 2.00018V2.00018V2.00018C29.3287 1.63496 29.0327 1.33889 28.6674 1.33889H28.6575H28.6475C28.2823 1.33889 27.9862 1.63496 27.9862 2.00018V2.00018V2.00018C27.9862 2.36541 27.69 2.66148 27.3248 2.66148V2.66148V2.66148C26.9595 2.66148 26.6634 2.9576 26.6634 3.32288V3.33265V3.33265C26.6634 3.70332 26.3628 4.00381 25.9921 4.00381V4.00381H25.9821C25.6169 4.00381 25.3208 4.29988 25.3208 4.6651V4.6651V4.6651C25.3208 5.03033 25.0247 5.3264 24.6594 5.3264V5.3264V5.3264C24.2942 5.3264 23.998 5.03033 23.998 4.6651V4.6651V4.6651C23.998 4.29988 23.7018 4.00381 23.3366 4.00381V4.00381V4.00381C22.9711 4.00381 22.6746 3.7079 22.6739 3.34241L22.6713 2.00413V2.00413C22.668 0.899157 21.7726 0.00443857 20.6676 0.00197526L20.0079 0.000504494C19.7784 0.000194448 19.5553 3.05503e-05 19.3423 5.13532e-06ZM23.998 12.6796V12.6796C23.998 13.0448 24.2942 13.3409 24.6594 13.3409V13.3409V13.3409C25.0253 13.3409 25.3226 13.6402 25.3248 14.0062V14.0062V14.0062C25.3281 14.3765 25.6276 14.676 25.998 14.6793V14.6793V14.6793C26.3639 14.6815 26.6634 14.9787 26.6634 15.3445V15.3445V15.3445C26.6634 15.7098 26.9596 16.0058 27.3248 16.0058V16.0058V16.0058C27.6901 16.0058 27.9862 16.3019 27.9862 16.6672V20.0032V23.3392C27.9862 23.7045 27.6901 24.0006 27.3248 24.0006V24.0006V24.0006C26.9596 24.0006 26.6634 24.2967 26.6634 24.6619V24.6619V24.6619C26.6634 25.0277 26.3639 25.325 25.998 25.3271V25.3271V25.3271C25.6287 25.3304 25.3281 25.629 25.3248 25.9983V25.9983V25.9983C25.3226 26.3642 25.0253 26.6655 24.6594 26.6655V26.6655V26.6655C24.2942 26.6655 23.998 26.9616 23.998 27.3268V27.3268V27.3268C23.998 27.692 23.702 27.9881 23.3367 27.9881H20H16.6633C16.298 27.9881 16.002 27.692 16.002 27.3268V27.3268V27.3268C16.002 26.9616 15.7058 26.6655 15.3406 26.6655V26.6655V26.6655C14.9747 26.6655 14.6774 26.3642 14.6752 25.9983V25.9983V25.9983C14.6719 25.629 14.3733 25.3304 14.0039 25.3271V25.3271V25.3271C13.6381 25.325 13.3366 25.0277 13.3366 24.6619V24.6619V24.6619C13.3366 24.2967 13.0404 24.0006 12.6752 24.0006V24.0006V24.0006C12.3099 24.0006 12.0138 23.7045 12.0138 23.3392V20.0032V16.6672C12.0138 16.3019 12.3099 16.0058 12.6752 16.0058V16.0058V16.0058C13.0404 16.0058 13.3366 15.7098 13.3366 15.3445V15.3445V15.3445C13.3366 14.9787 13.6381 14.6815 14.0039 14.6793V14.6793V14.6793C14.3733 14.676 14.6719 14.3755 14.6752 14.0062V14.0062V14.0062C14.6774 13.6402 14.9747 13.3409 15.3406 13.3409V13.3409V13.3409C15.7058 13.3409 16.002 13.0448 16.002 12.6796V12.6796V12.6796C16.002 12.3144 16.298 12.0183 16.6633 12.0183H20H23.3367C23.702 12.0183 23.998 12.3144 23.998 12.6796V12.6796Z" fill="white"/>
</svg>
