<svg width="36" height="40" viewBox="0 0 36 40" fill="none" xmlns="http://www.w3.org/2000/svg">
<g id="Group">
<path id="Vector" d="M17.5646 0.782707C16.2643 0.782055 15.5923 1.4526 15.5923 2.75287V4.10416C15.5923 4.43291 15.3258 4.69942 14.997 4.69942C14.6683 4.69942 14.4018 4.96593 14.4018 5.29468V5.34634V5.398C14.4018 5.72675 14.1353 5.99326 13.8065 5.99326C13.4778 5.99326 13.2113 5.72675 13.2113 5.398V5.34634V5.30357C13.2113 4.96991 12.9408 4.69942 12.6071 4.69942C12.2734 4.69942 12.003 4.42894 12.003 4.09528V4.04285V3.98153C12.003 3.65278 11.7365 3.38627 11.4077 3.38627C11.0789 3.38627 10.8124 3.11976 10.8124 2.79101V2.73935V2.69658C10.8124 2.36292 10.542 2.09243 10.2083 2.09243C9.87463 2.09243 9.60415 2.36292 9.60415 2.69658V2.73935V2.78212C9.60415 3.11579 9.33366 3.38627 9 3.38627C8.66634 3.38627 8.39585 3.65676 8.39585 3.99042V4.04285V4.09528C8.39585 4.42894 8.12537 4.69942 7.79171 4.69942C7.45858 4.69942 7.18904 4.97044 7.19086 5.30356L7.19112 5.3502L7.19154 5.40232C7.19426 5.73573 7.46362 6.00549 7.79704 6.00871C8.12838 6.01085 8.39585 6.28005 8.39585 6.6114V7.96299V9.31457C8.39585 9.64592 8.12838 9.91512 7.79704 9.91726C7.46362 9.92048 7.19426 10.1902 7.19153 10.5237L7.19112 10.5738L7.1908 10.6313C7.18901 10.9606 6.92158 11.2265 6.5923 11.2265C6.26355 11.2265 5.99704 10.96 5.99704 10.6313V10.57V10.5087C5.99704 10.1799 5.73053 9.9134 5.40178 9.9134C5.0725 9.9134 4.80507 9.64742 4.80327 9.31815L4.80296 9.26069C4.80001 8.90041 4.50712 8.60991 4.14683 8.60991H3.59822C2.93502 8.60991 2.39663 9.1461 2.39392 9.8093L2.39348 9.91726L2.39155 10.6313C2.39065 10.9603 2.12368 11.2265 1.79467 11.2265C1.46592 11.2265 1.19941 11.4931 1.19941 11.8218V11.8831V11.9444C1.19941 12.2732 1.46592 12.5397 1.79467 12.5397C2.12342 12.5397 2.38993 12.8062 2.38993 13.135V13.1866V13.2294C2.38993 13.5631 2.66042 13.8335 2.99408 13.8335C3.32774 13.8335 3.59822 14.104 3.59822 14.4377V14.4901V14.5514C3.59822 14.8802 3.86473 15.1467 4.19348 15.1467C4.52224 15.1467 4.78875 15.4132 4.78875 15.742V15.7936V15.8453C4.78875 16.174 4.52224 16.4405 4.19348 16.4405C3.86473 16.4405 3.59822 16.707 3.59822 17.0358V17.0874C3.59822 17.445 3.30881 17.735 2.95131 17.7358L1.79822 17.7382C0.804156 17.7414 0 18.5482 0 19.5423V20.351V21.1598C0 22.1538 0.804156 22.9606 1.79822 22.9638L2.9513 22.9663C3.30881 22.967 3.59822 23.2571 3.59822 23.6146V23.6662C3.59822 23.995 3.86473 24.2615 4.19348 24.2615C4.52224 24.2615 4.78875 24.528 4.78875 24.8568V24.9084V24.9601C4.78875 25.2888 4.52224 25.5553 4.19348 25.5553C3.86473 25.5553 3.59822 25.8218 3.59822 26.1506V26.2119V26.2643C3.59822 26.598 3.32774 26.8685 2.99408 26.8685C2.66042 26.8685 2.38993 27.139 2.38993 27.4726V27.5154V27.5671C2.38993 27.8958 2.12342 28.1623 1.79467 28.1623C1.46592 28.1623 1.19941 28.4288 1.19941 28.7576V28.8189V28.8802C1.19941 29.209 1.46592 29.4755 1.79467 29.4755C2.12342 29.4755 2.38993 29.742 2.38993 30.0707V30.779V30.8742C2.38993 31.5415 2.9309 32.0825 3.59822 32.0825H4.1596C4.51688 32.0825 4.80652 31.7928 4.80652 31.4355V31.3839C4.80652 31.0551 5.07302 30.7886 5.40178 30.7886C5.73053 30.7886 5.99704 30.5221 5.99704 30.1934V30.132V30.0707C5.99704 29.742 6.26355 29.4755 6.5923 29.4755C6.92158 29.4755 7.18901 29.7415 7.19081 30.0707L7.19112 30.1263L7.19154 30.1784C7.19426 30.5118 7.46362 30.7815 7.79704 30.7848C8.12838 30.7869 8.39585 31.0561 8.39585 31.3875V32.739V34.0853C8.39585 34.419 8.12537 34.6895 7.79171 34.6895C7.45858 34.6895 7.18904 34.9605 7.19086 35.2936L7.19112 35.3402L7.19154 35.3923C7.19426 35.7258 7.46362 35.9955 7.79704 35.9987C8.12838 36.0009 8.39585 36.2701 8.39585 36.6014V36.6592V36.7116C8.39585 37.0453 8.66634 37.3158 9 37.3158C9.33366 37.3158 9.60415 37.5862 9.60415 37.9199V37.9627V38.0054C9.60415 38.3391 9.87463 38.6096 10.2083 38.6096C10.542 38.6096 10.8124 38.3391 10.8124 38.0054V37.9627V37.911C10.8124 37.5823 11.0789 37.3158 11.4077 37.3158C11.7365 37.3158 12.003 37.0492 12.003 36.7205V36.6592V36.6032C12.003 36.2709 12.2712 36.0009 12.6036 35.9987C12.936 35.9955 13.2046 35.7266 13.2073 35.3941L13.2077 35.3422L13.208 35.2847C13.2098 34.9554 13.4772 34.6895 13.8065 34.6895C14.1353 34.6895 14.4018 34.956 14.4018 35.2847V35.346V35.4073C14.4018 35.7361 14.6683 36.0026 14.997 36.0026C15.326 36.0026 15.5928 36.2689 15.5934 36.5979L15.5959 37.9588C15.5988 39.039 16.4753 39.9131 17.5555 39.9131H18H18.4445C19.5247 39.9131 20.4012 39.039 20.4041 37.9588L20.4066 36.5979C20.4072 36.2689 20.674 36.0026 21.003 36.0026C21.3317 36.0026 21.5982 35.7361 21.5982 35.4073V35.346V35.2847C21.5982 34.956 21.8647 34.6895 22.1935 34.6895C22.5228 34.6895 22.7902 34.9554 22.792 35.2847L22.7923 35.3402L22.7927 35.3923C22.7954 35.7258 23.0648 35.9955 23.3982 35.9987C23.7296 36.0009 23.997 36.2701 23.997 36.6014V36.6592V36.7205C23.997 37.0492 24.2635 37.3158 24.5923 37.3158C24.9211 37.3158 25.1876 37.5823 25.1876 37.911V37.9627V38.0054C25.1876 38.3391 25.458 38.6096 25.7917 38.6096C26.1254 38.6096 26.3959 38.3391 26.3959 38.0054V37.9627V37.9164C26.3959 37.584 26.6641 37.314 26.9964 37.3119C27.3289 37.3087 27.5974 37.0397 27.6002 36.7073L27.6006 36.6534L27.6009 36.5979C27.6027 36.2686 27.8701 36.0026 28.1994 36.0026C28.5282 36.0026 28.7947 35.7361 28.7947 35.4073V35.346V35.2847C28.7947 34.956 28.5282 34.6895 28.1994 34.6895C27.8707 34.6895 27.6041 34.4229 27.6041 34.0942V32.739V31.3839C27.6041 31.0551 27.8707 30.7886 28.1994 30.7886C28.5282 30.7886 28.7947 30.5221 28.7947 30.1934V30.132V30.0707C28.7947 29.742 29.0612 29.4755 29.3899 29.4755C29.7192 29.4755 29.9866 29.7415 29.9884 30.0707L29.9887 30.1263L29.9892 30.1784C29.9919 30.5118 30.2613 30.7815 30.5947 30.7848C30.926 30.7869 31.1935 31.0561 31.1935 31.3875V31.4355C31.1935 31.7928 31.4831 32.0825 31.8404 32.0825H32.3929C33.0553 32.0825 33.5923 31.5455 33.5923 30.8831V30.779V30.0796C33.5923 29.746 33.8628 29.4755 34.1964 29.4755C34.5301 29.4755 34.8006 29.205 34.8006 28.8713V28.8189V28.7665C34.8006 28.4328 34.5301 28.1623 34.1964 28.1623C33.8628 28.1623 33.5923 27.8918 33.5923 27.5582V27.5154V27.4637C33.5923 27.135 33.3258 26.8685 32.997 26.8685C32.6678 26.8685 32.4003 26.6025 32.3985 26.2732L32.3982 26.2158L32.3978 26.1638C32.3951 25.8314 32.1265 25.5624 31.7941 25.5592C31.4618 25.5571 31.1935 25.2871 31.1935 24.9547V24.9084V24.8656C31.1935 24.532 31.464 24.2615 31.7976 24.2615C32.1313 24.2615 32.4018 23.991 32.4018 23.6573V23.6146C32.4018 23.2571 32.6912 22.967 33.0487 22.9663L34.2018 22.9638C35.1958 22.9606 36 22.1538 36 21.1598V20.351V19.5423C36 18.5482 35.1958 17.7414 34.2018 17.7382L33.0487 17.7358C32.6912 17.735 32.4018 17.445 32.4018 17.0874V17.0447C32.4018 16.711 32.1313 16.4405 31.7976 16.4405C31.464 16.4405 31.1935 16.17 31.1935 15.8364V15.7936V15.7473C31.1935 15.415 31.4618 15.145 31.7941 15.1428C32.1265 15.1396 32.3951 14.8706 32.3978 14.5382L32.3982 14.4843L32.3985 14.4288C32.4003 14.0995 32.6678 13.8335 32.997 13.8335C33.3258 13.8335 33.5923 13.567 33.5923 13.2383V13.1866V13.1438C33.5923 12.8102 33.8628 12.5397 34.1964 12.5397C34.5301 12.5397 34.8006 12.2692 34.8006 11.9356V11.8831V11.8307C34.8006 11.497 34.5301 11.2265 34.1964 11.2265C33.8628 11.2265 33.5923 10.9561 33.5923 10.6224V9.9134V9.79966C33.5923 9.13724 33.0553 8.60025 32.3929 8.60025H31.8501C31.4874 8.60025 31.1935 8.89421 31.1935 9.25682V9.31457C31.1935 9.64592 30.926 9.91512 30.5947 9.91726C30.2613 9.92048 29.9919 10.1902 29.9892 10.5237L29.9887 10.5738L29.9884 10.6313C29.9866 10.9606 29.7192 11.2265 29.3899 11.2265C29.0612 11.2265 28.7947 10.96 28.7947 10.6313V10.57V10.5087C28.7947 10.1799 28.5282 9.9134 28.1994 9.9134C27.8707 9.9134 27.6041 9.64689 27.6041 9.31814V7.96299V6.60783C27.6041 6.27908 27.8707 6.01257 28.1994 6.01257C28.5282 6.01257 28.7947 5.74606 28.7947 5.41731V5.356V5.29469C28.7947 4.96593 28.5282 4.69942 28.1994 4.69942C27.8701 4.69942 27.6027 4.43344 27.6009 4.10417L27.6006 4.04671L27.6002 3.99475C27.5974 3.66231 27.3289 3.39335 26.9964 3.39013C26.6641 3.388 26.3959 3.118 26.3959 2.78567V2.73935V2.69658C26.3959 2.36292 26.1254 2.09243 25.7917 2.09243C25.458 2.09243 25.1876 2.36292 25.1876 2.69658V2.73935V2.79101C25.1876 3.11976 24.9211 3.38627 24.5923 3.38627C24.2635 3.38627 23.997 3.65278 23.997 3.98153V4.04285V4.09528C23.997 4.42894 23.7266 4.69942 23.3929 4.69942C23.0592 4.69942 22.7887 4.96991 22.7887 5.30357V5.34634V5.398C22.7887 5.72675 22.5222 5.99326 22.1935 5.99326C21.8647 5.99326 21.5982 5.72675 21.5982 5.398V5.34634V5.29468C21.5982 4.96593 21.3317 4.69942 21.003 4.69942C20.674 4.69942 20.4072 4.43309 20.4066 4.10416L20.4041 2.74321C20.4012 1.66227 19.5255 0.786823 18.4445 0.784203L18.0071 0.783146C17.8561 0.782925 17.7082 0.782776 17.5646 0.782707ZM21.5982 13.1866V13.2383C21.5982 13.567 21.8647 13.8335 22.1935 13.8335C22.5228 13.8335 22.7902 14.0995 22.792 14.4288L22.7923 14.4843L22.7927 14.5364C22.7954 14.8699 23.0648 15.1396 23.3982 15.1428C23.7296 15.145 23.997 15.4142 23.997 15.7455V15.7936V15.8453C23.997 16.174 24.2635 16.4405 24.5923 16.4405C24.9211 16.4405 25.1876 16.707 25.1876 17.0358V20.351V23.6662C25.1876 23.995 24.9211 24.2615 24.5923 24.2615C24.2635 24.2615 23.997 24.528 23.997 24.8568V24.9084V24.9565C23.997 25.2879 23.7296 25.5571 23.3982 25.5592C23.0648 25.5624 22.7954 25.8322 22.7927 26.1656L22.7923 26.2158L22.792 26.2732C22.7902 26.6025 22.5228 26.8685 22.1935 26.8685C21.8647 26.8685 21.5982 27.135 21.5982 27.4637V27.5154C21.5982 27.8727 21.3086 28.1623 20.9513 28.1623H18H15.0487C14.6914 28.1623 14.4018 27.8727 14.4018 27.5154V27.4637C14.4018 27.135 14.1353 26.8685 13.8065 26.8685C13.4772 26.8685 13.2098 26.6025 13.208 26.2732L13.2077 26.2158L13.2073 26.1638C13.2046 25.8314 12.936 25.5624 12.6036 25.5592C12.2712 25.5571 12.003 25.2871 12.003 24.9547V24.9084V24.8568C12.003 24.528 11.7365 24.2615 11.4077 24.2615C11.0789 24.2615 10.8124 23.995 10.8124 23.6662V20.351V17.0358C10.8124 16.707 11.0789 16.4405 11.4077 16.4405C11.7365 16.4405 12.003 16.174 12.003 15.8453V15.7936V15.7473C12.003 15.415 12.2712 15.145 12.6036 15.1428C12.936 15.1396 13.2045 14.8706 13.2073 14.5382L13.2077 14.4843L13.208 14.4288C13.2098 14.0995 13.4772 13.8335 13.8065 13.8335C14.1353 13.8335 14.4018 13.567 14.4018 13.2383V13.1866C14.4018 12.8293 14.6914 12.5397 15.0487 12.5397H18H20.9513C21.3086 12.5397 21.5982 12.8293 21.5982 13.1866Z" fill="#D9D9D9"/>
</g>
</svg>
