<svg width="44" height="44" viewBox="0 0 44 44" fill="none" xmlns="http://www.w3.org/2000/svg">
<path d="M30.5555 16.5H32.3889V14.6667H30.5555V16.5Z" fill="black"/>
<path d="M32.3889 18.3333H34.2222V16.5H32.3889V18.3333Z" fill="black"/>
<path d="M32.3889 27.5H34.2222V25.6667H32.3889V27.5Z" fill="black"/>
<path d="M30.5555 29.3333H32.3889V27.5H30.5555V29.3333Z" fill="black"/>
<path d="M26.8889 20.1667H28.7222V18.3333H26.8889V20.1667Z" fill="black"/>
<path d="M26.8889 25.6667H28.7222V23.8333H26.8889V25.6667Z" fill="black"/>
<path d="M36.0555 18.3333H34.2222V25.6667H36.0555V18.3333Z" fill="black"/>
<path d="M30.5555 20.1667H28.7222V23.8333H30.5555V20.1667Z" fill="black"/>
<path d="M17.7222 31.1667V33H21.3889V31.1667H17.7222Z" fill="black"/>
<path d="M14.0555 29.3333V31.1667H17.7222V29.3333H14.0555Z" fill="black"/>
<path d="M10.3889 27.5V29.3333H14.0555V27.5H10.3889Z" fill="black"/>
<path d="M10.3889 16.5H8.55554V27.5H10.3889V16.5Z" fill="black"/>
<path d="M14.0555 16.5V14.6667H10.3889V16.5H14.0555Z" fill="black"/>
<path d="M17.7222 14.6667V12.8333H14.0555V14.6667H17.7222Z" fill="black"/>
<path d="M21.3889 12.8333V11H17.7222V12.8333H21.3889Z" fill="black"/>
<path d="M21.3889 31.1667H23.2222V12.8333H21.3889V31.1667Z" fill="black"/>
</svg>
